<?xml version="1.0" encoding="UTF-8"?>
<!DOCTYPE svg PUBLIC "-//W3C//DTD SVG 1.1//EN" "http://www.w3.org/Graphics/SVG/1.1/DTD/svg11.dtd">
<svg xmlns="http://www.w3.org/2000/svg" version="1.1" width="1024px" height="1024px" style="shape-rendering:geometricPrecision; text-rendering:geometricPrecision; image-rendering:optimizeQuality; fill-rule:evenodd; clip-rule:evenodd" xmlns:xlink="http://www.w3.org/1999/xlink">
<g><path style="opacity:1" fill="#337edb" d="M 483.5,256.5 C 482.448,256.649 481.448,256.483 480.5,256C 481.749,255.26 482.749,255.427 483.5,256.5 Z"/></g>
<g><path style="opacity:1" fill="#327dd4" d="M 541.5,255.5 C 542.833,256.167 542.833,256.167 541.5,255.5 Z"/></g>
<g><path style="opacity:1" fill="#347ad4" d="M 544.5,256.5 C 544.897,255.475 545.563,255.308 546.5,256C 545.906,256.464 545.239,256.631 544.5,256.5 Z"/></g>
<g><path style="opacity:1" fill="#327cda" d="M 473.5,256.5 C 474.833,257.167 474.833,257.167 473.5,256.5 Z"/></g>
<g><path style="opacity:1" fill="#277ced" d="M 475.5,258.5 C 476.209,257.596 477.209,257.263 478.5,257.5C 518.925,254.177 558.591,258.677 597.5,271C 611.189,276.502 624.522,282.669 637.5,289.5C 642.529,292.102 647.362,295.102 652,298.5C 650.794,293.661 649.294,289.161 647.5,285C 649.328,279.982 652.662,278.482 657.5,280.5C 658.988,283.662 660.654,286.662 662.5,289.5C 664.597,296.47 667.263,303.136 670.5,309.5C 672.174,314.177 673.84,318.844 675.5,323.5C 674.71,324.401 673.71,325.068 672.5,325.5C 657.868,324.113 643.202,322.613 628.5,321C 625.513,318.123 625.179,315.123 627.5,312C 633.725,310.749 640.058,310.083 646.5,310C 644.382,308.951 642.716,307.451 641.5,305.5C 616.401,287.347 588.401,276.014 557.5,271.5C 501.049,260.66 447.383,268.66 396.5,295.5C 393.833,297.5 391.167,299.5 388.5,301.5C 375.089,307.96 362.922,316.294 352,326.5C 351.308,327.437 351.475,328.103 352.5,328.5C 356.815,334.445 359.149,341.111 359.5,348.5C 360.623,374.773 348.623,391.606 323.5,399C 316.508,399.5 309.508,399.666 302.5,399.5C 294.102,396.13 286.435,391.463 279.5,385.5C 265.642,366.323 264.975,346.656 277.5,326.5C 291.247,312.089 307.914,307.256 327.5,312C 332.779,313.973 337.779,316.473 342.5,319.5C 344.854,317.812 346.854,315.812 348.5,313.5C 348.5,313.167 348.5,312.833 348.5,312.5C 349.605,311.4 350.938,310.733 352.5,310.5C 390.48,283.15 431.48,265.817 475.5,258.5 Z M 306.5,321.5 C 330.525,319.867 344.525,330.867 348.5,354.5C 346.838,370.806 339.171,381.639 325.5,387C 303.494,392.082 288.661,384.582 281,364.5C 277.075,343.04 285.575,328.706 306.5,321.5 Z"/></g>
<g><path style="opacity:1" fill="#387dda" d="M 584.5,263.5 C 585.833,264.167 585.833,264.167 584.5,263.5 Z"/></g>
<g><path style="opacity:1" fill="#387dda" d="M 432.5,265.5 C 433.833,266.167 433.833,266.167 432.5,265.5 Z"/></g>
<g><path style="opacity:1" fill="#225cb2" d="M 598.5,269.5 C 608.859,274.022 619.192,278.855 629.5,284C 632.407,285.609 635.073,287.442 637.5,289.5C 624.522,282.669 611.189,276.502 597.5,271C 558.591,258.677 518.925,254.177 478.5,257.5C 480.415,257.784 482.081,257.451 483.5,256.5C 522.34,253.142 560.673,257.476 598.5,269.5 Z"/></g>
<g><path style="opacity:1" fill="#3e7dda" d="M 593.5,266.5 C 594.833,267.167 594.833,267.167 593.5,266.5 Z"/></g>
<g><path style="opacity:1" fill="#387dd4" d="M 598.5,268.5 C 599.833,269.167 599.833,269.167 598.5,268.5 Z"/></g>
<g><path style="opacity:1" fill="#387dda" d="M 606.5,271.5 C 607.833,272.167 607.833,272.167 606.5,271.5 Z"/></g>
<g><path style="opacity:1" fill="#387ce1" d="M 415.5,273.5 C 414.833,272.167 414.833,272.167 415.5,273.5 Z"/></g>
<g><path style="opacity:1" fill="#215cb0" d="M 557.5,271.5 C 521.199,266.298 485.199,267.798 449.5,276C 439.01,278.439 429.01,281.939 419.5,286.5C 413.64,287.766 408.307,290.1 403.5,293.5C 401.254,294.455 398.921,295.122 396.5,295.5C 447.383,268.66 501.049,260.66 557.5,271.5 Z"/></g>
<g><path style="opacity:1" fill="#347de1" d="M 484.5,271.5 C 484.897,270.475 485.563,270.308 486.5,271C 485.906,271.464 485.239,271.631 484.5,271.5 Z"/></g>
<g><path style="opacity:1" fill="#337ddb" d="M 522.5,270.5 C 523.251,269.427 524.251,269.26 525.5,270C 524.552,270.483 523.552,270.649 522.5,270.5 Z"/></g>
<g><path style="opacity:1" fill="#387dda" d="M 515.5,270.5 C 516.251,269.427 517.251,269.26 518.5,270C 517.552,270.483 516.552,270.649 515.5,270.5 Z"/></g>
<g><path style="opacity:1" fill="#387dda" d="M 513.5,269.5 C 514.833,270.167 514.833,270.167 513.5,269.5 Z"/></g>
<g><path style="opacity:1" fill="#387dda" d="M 506.5,269.5 C 507.833,270.167 507.833,270.167 506.5,269.5 Z"/></g>
<g><path style="opacity:1" fill="#387dda" d="M 504.5,269.5 C 505.833,270.167 505.833,270.167 504.5,269.5 Z"/></g>
<g><path style="opacity:1" fill="#387dde" d="M 500.5,270.5 C 500.897,269.475 501.563,269.308 502.5,270C 501.906,270.464 501.239,270.631 500.5,270.5 Z"/></g>
<g><path style="opacity:1" fill="#387ce1" d="M 461.5,275.5 C 461.897,274.475 462.563,274.308 463.5,275C 462.906,275.464 462.239,275.631 461.5,275.5 Z"/></g>
<g><path style="opacity:1" fill="#387dda" d="M 454.5,275.5 C 455.833,276.167 455.833,276.167 454.5,275.5 Z"/></g>
<g><path style="opacity:1" fill="#327cda" d="M 450.5,276.5 C 451.833,277.167 451.833,277.167 450.5,276.5 Z"/></g>
<g><path style="opacity:1" fill="#387ce1" d="M 448.5,277.5 C 449.833,278.167 449.833,278.167 448.5,277.5 Z"/></g>
<g><path style="opacity:1" fill="#327ce1" d="M 443.5,279.5 C 443.897,278.475 444.563,278.308 445.5,279C 444.906,279.464 444.239,279.631 443.5,279.5 Z"/></g>
<g><path style="opacity:1" fill="#235baf" d="M 557.5,271.5 C 588.401,276.014 616.401,287.347 641.5,305.5C 636.057,302.608 630.724,299.441 625.5,296C 617.819,291.657 609.819,288.157 601.5,285.5C 600.07,284.463 598.403,283.796 596.5,283.5C 592.131,281.204 587.464,279.371 582.5,278C 574.002,275.96 565.669,273.793 557.5,271.5 Z"/></g>
<g><path style="opacity:1" fill="#4b7dc1" d="M 648.5,279.5 C 649.833,280.167 649.833,280.167 648.5,279.5 Z"/></g>
<g><path style="opacity:1" fill="#327ce1" d="M 395.5,280.5 C 396.833,281.167 396.833,281.167 395.5,280.5 Z"/></g>
<g><path style="opacity:1" fill="#387ce1" d="M 428.5,283.5 C 429.833,284.167 429.833,284.167 428.5,283.5 Z"/></g>
<g><path style="opacity:1" fill="#3e7dda" d="M 596.5,283.5 C 596.5,283.833 596.5,284.167 596.5,284.5C 595.83,284.019 595.83,283.685 596.5,283.5 Z"/></g>
<g><path style="opacity:1" fill="#3e7dda" d="M 596.5,284.5 C 597.833,285.167 597.833,285.167 596.5,284.5 Z"/></g>
<g><path style="opacity:1" fill="#387ce1" d="M 601.5,285.5 C 600.833,286.167 600.833,286.167 601.5,285.5 Z"/></g>
<g><path style="opacity:1" fill="#5783bb" d="M 661.5,285.5 C 662.833,286.167 662.833,286.167 661.5,285.5 Z"/></g>
<g><path style="opacity:1" fill="#367ce2" d="M 419.5,286.5 C 420.239,286.369 420.906,286.536 421.5,287C 420.563,287.692 419.897,287.525 419.5,286.5 Z"/></g>
<g><path style="opacity:1" fill="#327cda" d="M 381.5,289.5 C 380.833,288.167 380.833,288.167 381.5,289.5 Z"/></g>
<g><path style="opacity:1" fill="#5183c1" d="M 662.5,288.5 C 663.833,289.167 663.833,289.167 662.5,288.5 Z"/></g>
<g><path style="opacity:1" fill="#205aae" d="M 475.5,258.5 C 431.48,265.817 390.48,283.15 352.5,310.5C 358.214,305.451 364.214,300.785 370.5,296.5C 372.882,295.649 374.882,294.316 376.5,292.5C 378.674,292.25 380.341,291.25 381.5,289.5C 392.872,284.146 404.205,278.813 415.5,273.5C 423.184,270.666 431.851,267.832 441.5,265C 440.304,264.346 440.304,263.846 441.5,263.5C 442.293,263.931 443.127,264.265 444,264.5C 454.317,261.462 464.817,259.462 475.5,258.5 Z"/></g>
<g><path style="opacity:1" fill="#327ce1" d="M 376.5,292.5 C 375.833,291.167 375.833,291.167 376.5,292.5 Z"/></g>
<g><path style="opacity:1" fill="#3e7dda" d="M 608.5,291.5 C 609.833,292.167 609.833,292.167 608.5,291.5 Z"/></g>
<g><path style="opacity:1" fill="#3e7dda" d="M 615.5,292.5 C 616.833,293.167 616.833,293.167 615.5,292.5 Z"/></g>
<g><path style="opacity:1" fill="#3e83da" d="M 648.5,292.5 C 649.833,293.167 649.833,293.167 648.5,292.5 Z"/></g>
<g><path style="opacity:1" fill="#3883e1" d="M 403.5,293.5 C 404.833,294.167 404.833,294.167 403.5,293.5 Z"/></g>
<g><path style="opacity:1" fill="#3e7dd4" d="M 613.5,294.5 C 614.833,295.167 614.833,295.167 613.5,294.5 Z"/></g>
<g><path style="opacity:1" fill="#387dda" d="M 619.5,294.5 C 620.833,295.167 620.833,295.167 619.5,294.5 Z"/></g>
<g><path style="opacity:1" fill="#347dda" d="M 370.5,296.5 C 369.761,296.631 369.094,296.464 368.5,296C 369.437,295.308 370.103,295.475 370.5,296.5 Z"/></g>
<g><path style="opacity:1" fill="#387dda" d="M 366.5,296.5 C 367.833,297.167 367.833,297.167 366.5,296.5 Z"/></g>
<g><path style="opacity:1" fill="#387dda" d="M 359.5,298.5 C 360.833,299.167 360.833,299.167 359.5,298.5 Z"/></g>
<g><path style="opacity:1" fill="#327ce1" d="M 388.5,301.5 C 389.833,302.167 389.833,302.167 388.5,301.5 Z"/></g>
<g><path style="opacity:1" fill="#327cda" d="M 313.5,306.5 C 314.833,307.167 314.833,307.167 313.5,306.5 Z"/></g>
<g><path style="opacity:1" fill="#4483e1" d="M 640.5,307.5 C 639.833,306.167 639.833,306.167 640.5,307.5 Z"/></g>
<g><path style="opacity:1" fill="#4483e1" d="M 640.5,307.5 C 641.167,307.5 641.5,307.833 641.5,308.5C 641.167,308.167 640.833,307.833 640.5,307.5 Z"/></g>
<g><path style="opacity:1" fill="#4489e1" d="M 641.5,308.5 C 642.833,309.167 642.833,309.167 641.5,308.5 Z"/></g>
<g><path style="opacity:1" fill="#7589a7" d="M 670.5,308.5 C 671.833,309.167 671.833,309.167 670.5,308.5 Z"/></g>
<g><path style="opacity:1" fill="#215db4" d="M 344.5,315.5 C 345.605,314.4 346.938,313.733 348.5,313.5C 346.854,315.812 344.854,317.812 342.5,319.5C 337.779,316.473 332.779,313.973 327.5,312C 307.914,307.256 291.247,312.089 277.5,326.5C 279.598,322.566 282.598,319.4 286.5,317C 305.583,305.641 324.083,305.808 342,317.5C 342.995,316.934 343.828,316.267 344.5,315.5 Z"/></g>
<g><path style="opacity:1" fill="#327ce1" d="M 334.5,311.5 C 335.833,312.167 335.833,312.167 334.5,311.5 Z"/></g>
<g><path style="opacity:1" fill="#327ce1" d="M 348.5,312.5 C 347.833,311.167 347.833,311.167 348.5,312.5 Z"/></g>
<g><path style="opacity:1" fill="#d9a231" d="M 730.5,311.5 C 731.833,312.167 731.833,312.167 730.5,311.5 Z"/></g>
<g><path style="opacity:1" fill="#d9a231" d="M 732.5,311.5 C 733.833,312.167 733.833,312.167 732.5,311.5 Z"/></g>
<g><path style="opacity:1" fill="#f9a811" d="M 742.5,320.5 C 762.45,343.826 762.45,367.159 742.5,390.5C 739.851,392.14 737.184,393.807 734.5,395.5C 730.855,396.652 727.188,397.818 723.5,399C 722.944,399.383 722.611,399.883 722.5,400.5C 701.312,404.995 683.978,398.995 670.5,382.5C 662.969,369.632 661.136,356.299 665,342.5C 667.335,336.696 669.835,331.029 672.5,325.5C 673.71,325.068 674.71,324.401 675.5,323.5C 680.067,319.441 685.067,315.941 690.5,313C 689.833,312.667 689.167,312.333 688.5,312C 689.899,311.405 691.232,311.572 692.5,312.5C 710.596,306.179 727.262,308.846 742.5,320.5 Z"/></g>
<g><path style="opacity:1" fill="#4b7dc8" d="M 624.5,313.5 C 625.833,314.167 625.833,314.167 624.5,313.5 Z"/></g>
<g><path style="opacity:1" fill="#d9a231" d="M 734.5,313.5 C 735.833,314.167 735.833,314.167 734.5,313.5 Z"/></g>
<g><path style="opacity:1" fill="#327ce1" d="M 344.5,315.5 C 343.833,314.167 343.833,314.167 344.5,315.5 Z"/></g>
<g><path style="opacity:1" fill="#4b7dc8" d="M 624.5,314.5 C 623.833,315.167 623.833,315.167 624.5,314.5 Z"/></g>
<g><path style="opacity:1" fill="#e0a231" d="M 742.5,319.5 C 743.833,320.167 743.833,320.167 742.5,319.5 Z"/></g>
<g><path style="opacity:1" fill="#5d83bb" d="M 636.5,323.5 C 637.833,324.167 637.833,324.167 636.5,323.5 Z"/></g>
<g><path style="opacity:1" fill="#6489b5" d="M 640.5,324.5 C 640.897,323.475 641.563,323.308 642.5,324C 641.906,324.464 641.239,324.631 640.5,324.5 Z"/></g>
<g><path style="opacity:1" fill="#7089af" d="M 649.5,324.5 C 650.833,325.167 650.833,325.167 649.5,324.5 Z"/></g>
<g><path style="opacity:1" fill="#818fa1" d="M 658.5,326.5 C 658.897,325.475 659.563,325.308 660.5,326C 659.906,326.464 659.239,326.631 658.5,326.5 Z"/></g>
<g><path style="opacity:1" fill="#6a89af" d="M 643.5,326.5 C 644.833,327.167 644.833,327.167 643.5,326.5 Z"/></g>
<g><path style="opacity:1" fill="#a1967c" d="M 669.5,326.5 C 670.833,327.167 670.833,327.167 669.5,326.5 Z"/></g>
<g><path style="opacity:1" fill="#387ce1" d="M 352.5,327.5 C 353.833,328.167 353.833,328.167 352.5,327.5 Z"/></g>
<g><path style="opacity:1" fill="#3876d4" d="M 271.5,330.5 C 272.833,331.167 272.833,331.167 271.5,330.5 Z"/></g>
<g><path style="opacity:1" fill="#327ce1" d="M 358.5,337.5 C 359.833,338.167 359.833,338.167 358.5,337.5 Z"/></g>
<g><path style="opacity:1" fill="#1f57ab" d="M 277.5,326.5 C 264.975,346.656 265.642,366.323 279.5,385.5C 276.695,383.208 274.362,380.541 272.5,377.5C 270.67,373.139 269.004,368.806 267.5,364.5C 265.641,351.56 268.141,339.56 275,328.5C 275.708,327.619 276.542,326.953 277.5,326.5 Z"/></g>
<g><path style="opacity:1" fill="#387dda" d="M 265.5,358.5 C 266.833,359.167 266.833,359.167 265.5,358.5 Z"/></g>
<g><path style="opacity:1" fill="#327cda" d="M 265.5,361.5 C 266.833,362.167 266.833,362.167 265.5,361.5 Z"/></g>
<g><path style="opacity:1" fill="#327cda" d="M 267.5,364.5 C 266.833,365.167 266.833,365.167 267.5,364.5 Z"/></g>
<g><path style="opacity:1" fill="#327cda" d="M 357.5,374.5 C 358.833,375.167 358.833,375.167 357.5,374.5 Z"/></g>
<g><path style="opacity:1" fill="#d9a231" d="M 664.5,374.5 C 665.833,375.167 665.833,375.167 664.5,374.5 Z"/></g>
<g><path style="opacity:1" fill="#d9a237" d="M 754.5,374.5 C 755.833,375.167 755.833,375.167 754.5,374.5 Z"/></g>
<g><path style="opacity:1" fill="#367ada" d="M 272.5,377.5 C 272.631,378.239 272.464,378.906 272,379.5C 271.308,378.563 271.475,377.897 272.5,377.5 Z"/></g>
<g><path style="opacity:1" fill="#d9a231" d="M 666.5,379.5 C 667.833,380.167 667.833,380.167 666.5,379.5 Z"/></g>
<g><path style="opacity:1" fill="#d9a231" d="M 670.5,382.5 C 669.833,383.167 669.833,383.167 670.5,382.5 Z"/></g>
<g><path style="opacity:1" fill="#225eb4" d="M 359.5,348.5 C 362.199,367.781 355.532,383.114 339.5,394.5C 338.508,394.328 337.842,394.662 337.5,395.5C 326.233,401.516 314.566,402.849 302.5,399.5C 309.508,399.666 316.508,399.5 323.5,399C 348.623,391.606 360.623,374.773 359.5,348.5 Z"/></g>
<g><path style="opacity:1" fill="#c7a243" d="M 742.5,390.5 C 743.833,391.167 743.833,391.167 742.5,390.5 Z"/></g>
<g><path style="opacity:1" fill="#3275da" d="M 339.5,394.5 C 340.833,395.167 340.833,395.167 339.5,394.5 Z"/></g>
<g><path style="opacity:1" fill="#327cda" d="M 337.5,395.5 C 338.525,395.897 338.692,396.563 338,397.5C 337.536,396.906 337.369,396.239 337.5,395.5 Z"/></g>
<g><path style="opacity:1" fill="#3883eb" d="M 289.5,395.5 C 289.5,396.167 289.5,396.833 289.5,397.5C 287.067,397.214 287.067,396.548 289.5,395.5 Z"/></g>
<g><path style="opacity:1" fill="#327cda" d="M 332.5,398.5 C 333.833,399.167 333.833,399.167 332.5,398.5 Z"/></g>
<g><path style="opacity:1" fill="#387ce1" d="M 284.5,399.5 C 285.833,400.167 285.833,400.167 284.5,399.5 Z"/></g>
<g><path style="opacity:1" fill="#8f9593" d="M 723.5,406.5 C 722.475,406.103 722.308,405.437 723,404.5C 723.464,405.094 723.631,405.761 723.5,406.5 Z"/></g>
<g><path style="opacity:1" fill="#889695" d="M 723.5,406.5 C 724.833,407.167 724.833,407.167 723.5,406.5 Z"/></g>
<g><path style="opacity:1" fill="#6483b5" d="M 742.5,412.5 C 743.833,413.167 743.833,413.167 742.5,412.5 Z"/></g>
<g><path style="opacity:1" fill="#327cda" d="M 264.5,419.5 C 263.833,418.167 263.833,418.167 264.5,419.5 Z"/></g>
<g><path style="opacity:1" fill="#225cb2" d="M 279.5,385.5 C 286.435,391.463 294.102,396.13 302.5,399.5C 299.11,399.223 295.943,398.223 293,396.5C 292.333,398.833 292.333,401.167 293,403.5C 296.563,416.918 299.73,430.418 302.5,444C 302.185,450.203 299.185,452.203 293.5,450C 292.748,449.329 292.414,448.496 292.5,447.5C 297.098,450.856 300.098,449.856 301.5,444.5C 298,429.835 294.5,415.168 291,400.5C 290.014,399.829 288.847,399.829 287.5,400.5C 287.782,399.222 288.449,398.222 289.5,397.5C 291.933,396.452 291.933,395.786 289.5,395.5C 287.599,393.204 285.266,391.371 282.5,390C 280.859,388.871 279.859,387.371 279.5,385.5 Z"/></g>
<g><path style="opacity:1" fill="#327ce1" d="M 294.5,398.5 C 295.833,399.167 295.833,399.167 294.5,398.5 Z"/></g>
<g><path style="opacity:1" fill="#5d83be" d="M 729.5,419.5 C 729.631,420.239 729.464,420.906 729,421.5C 728.308,420.563 728.475,419.897 729.5,419.5 Z"/></g>
<g><path style="opacity:1" fill="#5183c1" d="M 729.5,424.5 C 730.833,425.167 730.833,425.167 729.5,424.5 Z"/></g>
<g><path style="opacity:1" fill="#327ce1" d="M 299.5,425.5 C 300.833,426.167 300.833,426.167 299.5,425.5 Z"/></g>
<g><path style="opacity:1" fill="#4f83c7" d="M 731.5,429.5 C 730.475,429.103 730.308,428.437 731,427.5C 731.464,428.094 731.631,428.761 731.5,429.5 Z"/></g>
<g><path style="opacity:1" fill="#4d83c7" d="M 731.5,429.5 C 732.525,429.897 732.692,430.563 732,431.5C 731.536,430.906 731.369,430.239 731.5,429.5 Z"/></g>
<g><path style="opacity:1" fill="#5183c8" d="M 733.5,432.5 C 732.833,433.167 732.833,433.167 733.5,432.5 Z"/></g>
<g><path style="opacity:1" fill="#4b83c8" d="M 748.5,433.5 C 749.833,434.167 749.833,434.167 748.5,433.5 Z"/></g>
<g><path style="opacity:1" fill="#3e7dce" d="M 750.5,442.5 C 751.833,443.167 751.833,443.167 750.5,442.5 Z"/></g>
<g><path style="opacity:1" fill="#3e7dce" d="M 735.5,446.5 C 736.833,447.167 736.833,447.167 735.5,446.5 Z"/></g>
<g><path style="opacity:1" fill="#387dda" d="M 267.5,454.5 C 268.833,455.167 268.833,455.167 267.5,454.5 Z"/></g>
<g><path style="opacity:1" fill="#277cee" d="M 734.5,395.5 C 743.43,415.959 749.097,437.292 751.5,459.5C 754.371,492.315 751.704,524.648 743.5,556.5C 739.829,566.192 735.829,575.859 731.5,585.5C 730.167,586.833 728.833,586.833 727.5,585.5C 728.262,585.089 729.262,584.923 730.5,585C 726.736,581.955 724.736,582.788 724.5,587.5C 725.274,588.711 726.107,588.711 727,587.5C 727.374,588.416 727.874,589.25 728.5,590C 727.714,592.96 726.548,595.794 725,598.5C 723.691,596.109 722.691,596.109 722,598.5C 721.667,597.833 721.333,597.167 721,596.5C 719.615,597.551 718.615,598.884 718,600.5C 717.667,600.167 717.333,599.833 717,599.5C 717.019,601.107 717.185,602.774 717.5,604.5C 714.402,604.587 714.068,604.087 716.5,603C 715.333,602.5 714.5,601.667 714,600.5C 713.313,602.568 713.48,604.568 714.5,606.5C 714.167,606.833 713.833,607.167 713.5,607.5C 712.378,606.37 711.044,605.703 709.5,605.5C 742.628,550.823 751.128,492.489 735,430.5C 732.95,422.755 730.117,415.421 726.5,408.5C 725.199,405.899 723.866,403.232 722.5,400.5C 722.611,399.883 722.944,399.383 723.5,399C 727.188,397.818 730.855,396.652 734.5,395.5 Z"/></g>
<g><path style="opacity:1" fill="#3e7dd4" d="M 737.5,459.5 C 738.833,460.167 738.833,460.167 737.5,459.5 Z"/></g>
<g><path style="opacity:1" fill="#3e7dd4" d="M 738.5,468.5 C 739.525,468.897 739.692,469.563 739,470.5C 738.536,469.906 738.369,469.239 738.5,468.5 Z"/></g>
<g><path style="opacity:1" fill="#387dda" d="M 265.5,483.5 C 266.833,484.167 266.833,484.167 265.5,483.5 Z"/></g>
<g><path style="opacity:1" fill="#3e7dd4" d="M 739.5,485.5 C 740.525,485.897 740.692,486.563 740,487.5C 739.536,486.906 739.369,486.239 739.5,485.5 Z"/></g>
<g><path style="opacity:1" fill="#387dd4" d="M 265.5,491.5 C 266.833,492.167 266.833,492.167 265.5,491.5 Z"/></g>
<g><path style="opacity:1" fill="#3e7dd4" d="M 739.5,494.5 C 740.833,495.167 740.833,495.167 739.5,494.5 Z"/></g>
<g><path style="opacity:1" fill="#267cee" d="M 292.5,447.5 C 290.072,441.815 288.239,435.815 287,429.5C 286.218,432.31 285.384,434.977 284.5,437.5C 283.659,436.991 283.159,437.657 283,439.5C 277.473,468.44 277.14,497.44 282,526.5C 283.083,533.183 284.916,539.517 287.5,545.5C 293.892,568.95 304.059,590.617 318,610.5C 320,613.666 322.5,616.332 325.5,618.5C 339.624,634.744 355.29,649.411 372.5,662.5C 400.337,682.575 431.337,695.242 465.5,700.5C 465.118,695.633 465.785,690.966 467.5,686.5C 468.302,687.952 468.802,689.618 469,691.5C 470.225,687.82 471.058,688.153 471.5,692.5C 470.448,692.351 469.448,692.517 468.5,693C 469.833,693.667 471.167,694.333 472.5,695C 471.072,698.474 471.572,698.974 474,696.5C 474.78,702.633 476.113,708.633 478,714.5C 478.792,717.106 480.292,719.106 482.5,720.5C 483.882,723.394 485.882,725.894 488.5,728C 492.336,730.084 496.003,732.417 499.5,735C 498.216,735.684 497.049,735.517 496,734.5C 495.947,737.245 494.78,739.245 492.5,740.5C 491.201,739.91 490.368,738.91 490,737.5C 487.88,738.605 485.713,738.605 483.5,737.5C 475.304,730.141 469.304,721.308 465.5,711C 454.085,708.813 442.751,706.313 431.5,703.5C 421.893,699.792 412.227,695.958 402.5,692C 392.144,686.49 381.811,680.99 371.5,675.5C 365.691,672.093 360.025,668.426 354.5,664.5C 344.036,655.612 334.036,646.279 324.5,636.5C 323.833,635.167 322.833,634.167 321.5,633.5C 321.5,632.833 321.167,632.5 320.5,632.5C 313.768,623.538 307.434,614.871 301.5,606.5C 295.376,595.918 290.043,584.918 285.5,573.5C 271.653,537.076 266.486,499.409 270,460.5C 271.27,448.367 273.77,436.534 277.5,425C 273.262,426.043 269.928,428.543 267.5,432.5C 265.099,436.067 261.932,438.734 258,440.5C 254.28,439.613 252.113,437.28 251.5,433.5C 255.177,428.159 259.51,423.492 264.5,419.5C 272.439,413.567 280.105,407.234 287.5,400.5C 288.847,399.829 290.014,399.829 291,400.5C 294.5,415.168 298,429.835 301.5,444.5C 300.098,449.856 297.098,450.856 292.5,447.5 Z"/></g>
<g><path style="opacity:1" fill="#3282e7" d="M 284.5,445.5 C 285.833,446.167 285.833,446.167 284.5,445.5 Z"/></g>
<g><path style="opacity:1" fill="#327ce7" d="M 285.5,438.5 C 286.833,439.167 286.833,439.167 285.5,438.5 Z"/></g>
<g><path style="opacity:1" fill="#327ce1" d="M 272.5,432.5 C 271.833,433.167 271.833,433.167 272.5,432.5 Z"/></g>
<g><path style="opacity:1" fill="#225cb0" d="M 284.5,437.5 C 277.741,473.365 278.741,509.365 287.5,545.5C 284.916,539.517 283.083,533.183 282,526.5C 277.14,497.44 277.473,468.44 283,439.5C 283.159,437.657 283.659,436.991 284.5,437.5 Z"/></g>
<g><path style="opacity:1" fill="#235db4" d="M 285.5,573.5 C 285.167,573.5 284.833,573.5 284.5,573.5C 284.672,572.508 284.338,571.842 283.5,571.5C 266.58,526.339 263.247,480.505 273.5,434C 273.43,433.235 273.097,432.735 272.5,432.5C 274.113,431.162 274.613,429.495 274,427.5C 272.223,429.79 270.056,431.457 267.5,432.5C 269.928,428.543 273.262,426.043 277.5,425C 273.77,436.534 271.27,448.367 270,460.5C 266.486,499.409 271.653,537.076 285.5,573.5 Z"/></g>
<g><path style="opacity:1" fill="#387dd4" d="M 736.5,526.5 C 737.833,527.167 737.833,527.167 736.5,526.5 Z"/></g>
<g><path style="opacity:1" fill="#327cda" d="M 750.5,533.5 C 751.525,533.897 751.692,534.563 751,535.5C 750.536,534.906 750.369,534.239 750.5,533.5 Z"/></g>
<g><path style="opacity:1" fill="#2158aa" d="M 751.5,459.5 C 755.239,483.627 754.739,507.96 750,532.5C 748.743,540.87 746.577,548.87 743.5,556.5C 751.704,524.648 754.371,492.315 751.5,459.5 Z"/></g>
<g><path style="opacity:1" fill="#2359ac" d="M 726.5,408.5 C 730.117,415.421 732.95,422.755 735,430.5C 751.128,492.489 742.628,550.823 709.5,605.5C 708.728,606.694 707.728,607.694 706.5,608.5C 711.904,599.081 716.904,589.415 721.5,579.5C 738.965,542.097 745.131,502.763 740,461.5C 739.024,451.439 736.857,441.773 733.5,432.5C 732.939,427.824 731.606,423.491 729.5,419.5C 728.699,415.765 727.699,412.099 726.5,408.5 Z"/></g>
<g><path style="opacity:1" fill="#387dda" d="M 273.5,546.5 C 274.833,547.167 274.833,547.167 273.5,546.5 Z"/></g>
<g><path style="opacity:1" fill="#3275d4" d="M 274.5,549.5 C 275.833,550.167 275.833,550.167 274.5,549.5 Z"/></g>
<g><path style="opacity:1" fill="#387dda" d="M 747.5,550.5 C 748.833,551.167 748.833,551.167 747.5,550.5 Z"/></g>
<g><path style="opacity:1" fill="#327cda" d="M 291.5,552.5 C 292.833,553.167 292.833,553.167 291.5,552.5 Z"/></g>
<g><path style="opacity:1" fill="#327cda" d="M 727.5,560.5 C 728.833,561.167 728.833,561.167 727.5,560.5 Z"/></g>
<g><path style="opacity:1" fill="#3275d4" d="M 280.5,567.5 C 281.833,568.167 281.833,568.167 280.5,567.5 Z"/></g>
<g><path style="opacity:1" fill="#3277d7" d="M 283.5,571.5 C 283.328,572.492 283.662,573.158 284.5,573.5C 284.607,575.379 284.107,575.712 283,574.5C 282.26,573.251 282.427,572.251 283.5,571.5 Z"/></g>
<g><path style="opacity:1" fill="#387dda" d="M 722.5,572.5 C 723.833,573.167 723.833,573.167 722.5,572.5 Z"/></g>
<g><path style="opacity:1" fill="#387dda" d="M 721.5,579.5 C 720.833,578.167 720.833,578.167 721.5,579.5 Z"/></g>
<g><path style="opacity:1" fill="#3275d4" d="M 287.5,583.5 C 288.833,584.167 288.833,584.167 287.5,583.5 Z"/></g>
<g><path style="opacity:1" fill="#3275da" d="M 732.5,588.5 C 733.833,589.167 733.833,589.167 732.5,588.5 Z"/></g>
<g><path style="opacity:1" fill="#3275d4" d="M 731.5,590.5 C 732.833,591.167 732.833,591.167 731.5,590.5 Z"/></g>
<g><path style="opacity:1" fill="#3275d4" d="M 297.5,602.5 C 298.833,603.167 298.833,603.167 297.5,602.5 Z"/></g>
<g><path style="opacity:1" fill="#3275d4" d="M 301.5,606.5 C 300.833,607.167 300.833,607.167 301.5,606.5 Z"/></g>
<g><path style="opacity:1" fill="#2575e1" d="M 743.5,556.5 C 739.203,572.212 733.037,587.212 725,601.5C 718.061,612.929 710.561,623.929 702.5,634.5C 692.331,645.835 681.331,656.335 669.5,666C 666.778,668.358 663.778,670.191 660.5,671.5C 661.508,669.661 663.008,668.328 665,667.5C 666.267,665.576 666.267,663.91 665,662.5C 664.333,665.167 663.667,665.167 663,662.5C 662.667,662.833 662.333,663.167 662,663.5C 660.69,661.868 660.19,660.201 660.5,658.5C 645.952,669.775 629.952,678.442 612.5,684.5C 632.274,675.691 649.941,665.191 665.5,653C 670.032,648.966 674.366,644.8 678.5,640.5C 682.898,637.105 686.564,633.105 689.5,628.5C 695.167,621.833 700.833,615.167 706.5,608.5C 707.728,607.694 708.728,606.694 709.5,605.5C 711.044,605.703 712.378,606.37 713.5,607.5C 713.833,607.167 714.167,606.833 714.5,606.5C 713.48,604.568 713.313,602.568 714,600.5C 714.5,601.667 715.333,602.5 716.5,603C 714.068,604.087 714.402,604.587 717.5,604.5C 717.185,602.774 717.019,601.107 717,599.5C 717.333,599.833 717.667,600.167 718,600.5C 718.615,598.884 719.615,597.551 721,596.5C 721.333,597.167 721.667,597.833 722,598.5C 722.691,596.109 723.691,596.109 725,598.5C 726.548,595.794 727.714,592.96 728.5,590C 727.874,589.25 727.374,588.416 727,587.5C 726.107,588.711 725.274,588.711 724.5,587.5C 724.736,582.788 726.736,581.955 730.5,585C 729.262,584.923 728.262,585.089 727.5,585.5C 728.833,586.833 730.167,586.833 731.5,585.5C 735.829,575.859 739.829,566.192 743.5,556.5 Z"/></g>
<g><path style="opacity:1" fill="#1d59af" d="M 287.5,545.5 C 296.232,571.966 308.898,596.299 325.5,618.5C 322.5,616.332 320,613.666 318,610.5C 304.059,590.617 293.892,568.95 287.5,545.5 Z"/></g>
<g><path style="opacity:1" fill="#3275d4" d="M 304.5,613.5 C 305.833,614.167 305.833,614.167 304.5,613.5 Z"/></g>
<g><path style="opacity:1" fill="#387ce1" d="M 695.5,618.5 C 696.833,619.167 696.833,619.167 695.5,618.5 Z"/></g>
<g><path style="opacity:1" fill="#387dda" d="M 689.5,628.5 C 688.833,627.167 688.833,627.167 689.5,628.5 Z"/></g>
<g><path style="opacity:1" fill="#3275d4" d="M 317.5,630.5 C 318.833,631.167 318.833,631.167 317.5,630.5 Z"/></g>
<g><path style="opacity:1" fill="#3275d4" d="M 320.5,632.5 C 321.167,632.5 321.5,632.833 321.5,633.5C 321.44,634.043 321.107,634.376 320.5,634.5C 319.227,633.743 319.227,633.077 320.5,632.5 Z"/></g>
<g><path style="opacity:1" fill="#327ce1" d="M 342.5,634.5 C 343.833,635.167 343.833,635.167 342.5,634.5 Z"/></g>
<g><path style="opacity:1" fill="#327cda" d="M 702.5,634.5 C 703.833,635.167 703.833,635.167 702.5,634.5 Z"/></g>
<g><path style="opacity:1" fill="#3275d4" d="M 324.5,636.5 C 323.833,637.167 323.833,637.167 324.5,636.5 Z"/></g>
<g><path style="opacity:1" fill="#3275d4" d="M 324.5,638.5 C 325.833,639.167 325.833,639.167 324.5,638.5 Z"/></g>
<g><path style="opacity:1" fill="#327ce1" d="M 678.5,640.5 C 677.833,639.167 677.833,639.167 678.5,640.5 Z"/></g>
<g><path style="opacity:1" fill="#387dd4" d="M 686.5,652.5 C 687.833,653.167 687.833,653.167 686.5,652.5 Z"/></g>
<g><path style="opacity:1" fill="#327cda" d="M 489.5,655.5 C 490.833,656.167 490.833,656.167 489.5,655.5 Z"/></g>
<g><path style="opacity:1" fill="#2b7cda" d="M 533.5,656.5 C 534.833,657.167 534.833,657.167 533.5,656.5 Z"/></g>
<g><path style="opacity:1" fill="#2577e5" d="M 555.5,717.5 C 553.264,720.967 551.264,724.634 549.5,728.5C 544.415,733.922 538.749,738.589 532.5,742.5C 519.217,747.547 505.884,747.713 492.5,743C 489.102,741.643 486.102,739.81 483.5,737.5C 485.713,738.605 487.88,738.605 490,737.5C 490.368,738.91 491.201,739.91 492.5,740.5C 494.78,739.245 495.947,737.245 496,734.5C 497.049,735.517 498.216,735.684 499.5,735C 496.003,732.417 492.336,730.084 488.5,728C 485.882,725.894 483.882,723.394 482.5,720.5C 480.292,719.106 478.792,717.106 478,714.5C 476.113,708.633 474.78,702.633 474,696.5C 471.572,698.974 471.072,698.474 472.5,695C 471.167,694.333 469.833,693.667 468.5,693C 469.448,692.517 470.448,692.351 471.5,692.5C 471.058,688.153 470.225,687.82 469,691.5C 468.802,689.618 468.302,687.952 467.5,686.5C 468.428,682.638 469.928,678.971 472,675.5C 475.67,670.998 479.503,666.665 483.5,662.5C 486.256,659.611 489.589,657.444 493.5,656C 517.757,648.53 537.257,655.03 552,675.5C 559.178,688.991 560.345,702.991 555.5,717.5 Z M 482.5,720.5 C 472.371,702.185 475.038,686.018 490.5,672C 510.047,660.93 526.88,664.097 541,681.5C 549.584,699.507 546.417,715.007 531.5,728C 513.252,738.19 496.919,735.69 482.5,720.5 Z"/></g>
<g><path style="opacity:1" fill="#205bb4" d="M 372.5,662.5 C 375.833,664.167 379.167,665.833 382.5,667.5C 405.55,682.424 429.217,692.091 453.5,696.5C 456.466,697.867 459.633,698.867 463,699.5C 464.09,689.396 467.257,680.063 472.5,671.5C 475.895,668.098 479.562,665.098 483.5,662.5C 479.503,666.665 475.67,670.998 472,675.5C 469.928,678.971 468.428,682.638 467.5,686.5C 465.785,690.966 465.118,695.633 465.5,700.5C 431.337,695.242 400.337,682.575 372.5,662.5 Z"/></g>
<g><path style="opacity:1" fill="#387ce1" d="M 544.5,663.5 C 545.833,664.167 545.833,664.167 544.5,663.5 Z"/></g>
<g><path style="opacity:1" fill="#3275d4" d="M 354.5,664.5 C 353.833,665.167 353.833,665.167 354.5,664.5 Z"/></g>
<g><path style="opacity:1" fill="#387dda" d="M 599.5,664.5 C 600.833,665.167 600.833,665.167 599.5,664.5 Z"/></g>
<g><path style="opacity:1" fill="#327cda" d="M 605.5,664.5 C 606.833,665.167 606.833,665.167 605.5,664.5 Z"/></g>
<g><path style="opacity:1" fill="#387dda" d="M 597.5,665.5 C 598.833,666.167 598.833,666.167 597.5,665.5 Z"/></g>
<g><path style="opacity:1" fill="#327ce1" d="M 382.5,666.5 C 383.833,667.167 383.833,667.167 382.5,666.5 Z"/></g>
<g><path style="opacity:1" fill="#387ce1" d="M 641.5,666.5 C 642.833,667.167 642.833,667.167 641.5,666.5 Z"/></g>
<g><path style="opacity:1" fill="#327ce1" d="M 472.5,671.5 C 471.833,670.167 471.833,670.167 472.5,671.5 Z"/></g>
<g><path style="opacity:1" fill="#205fb7" d="M 612.5,684.5 C 604.712,688.722 596.378,691.222 587.5,692C 593.36,686.14 599.194,680.306 605,674.5C 606.205,671.132 605.205,668.798 602,667.5C 599.35,668.673 596.85,670.006 594.5,671.5C 597.414,666.488 601.247,665.488 606,668.5C 608.104,671.758 607.77,674.758 605,677.5C 600.785,682.015 596.285,686.182 591.5,690C 598.449,688.345 605.449,686.512 612.5,684.5 Z"/></g>
<g><path style="opacity:1" fill="#327dd4" d="M 652.5,678.5 C 653.239,678.369 653.906,678.536 654.5,679C 653.563,679.692 652.897,679.525 652.5,678.5 Z"/></g>
<g><path style="opacity:1" fill="#267df1" d="M 660.5,671.5 C 657.833,673.833 655.167,676.167 652.5,678.5C 650.5,679.167 648.5,679.833 646.5,680.5C 629.387,689.594 611.387,696.428 592.5,701C 598.67,703.46 605.003,705.46 611.5,707C 615.361,708.84 616.028,711.34 613.5,714.5C 612.228,715.046 610.894,715.379 609.5,715.5C 606.198,714.62 602.865,713.954 599.5,713.5C 587.806,709.656 576.14,705.489 564.5,701C 575.005,691.661 585.005,681.828 594.5,671.5C 596.85,670.006 599.35,668.673 602,667.5C 605.205,668.798 606.205,671.132 605,674.5C 599.194,680.306 593.36,686.14 587.5,692C 596.378,691.222 604.712,688.722 612.5,684.5C 629.952,678.442 645.952,669.775 660.5,658.5C 660.19,660.201 660.69,661.868 662,663.5C 662.333,663.167 662.667,662.833 663,662.5C 663.667,665.167 664.333,665.167 665,662.5C 666.267,663.91 666.267,665.576 665,667.5C 663.008,668.328 661.508,669.661 660.5,671.5 Z"/></g>
<g><path style="opacity:1" fill="#327ce1" d="M 604.5,684.5 C 605.833,685.167 605.833,685.167 604.5,684.5 Z"/></g>
<g><path style="opacity:1" fill="#387ce1" d="M 606.5,683.5 C 607.833,684.167 607.833,684.167 606.5,683.5 Z"/></g>
<g><path style="opacity:1" fill="#3683e1" d="M 616.5,680.5 C 616.897,679.475 617.563,679.308 618.5,680C 617.906,680.464 617.239,680.631 616.5,680.5 Z"/></g>
<g><path style="opacity:1" fill="#327ce1" d="M 633.5,671.5 C 634.833,672.167 634.833,672.167 633.5,671.5 Z"/></g>
<g><path style="opacity:1" fill="#387dda" d="M 639.5,685.5 C 640.833,686.167 640.833,686.167 639.5,685.5 Z"/></g>
<g><path style="opacity:1" fill="#327ce1" d="M 429.5,688.5 C 430.833,689.167 430.833,689.167 429.5,688.5 Z"/></g>
<g><path style="opacity:1" fill="#205ab1" d="M 371.5,675.5 C 381.811,680.99 392.144,686.49 402.5,692C 412.227,695.958 421.893,699.792 431.5,703.5C 427.12,702.707 422.786,701.707 418.5,700.5C 411.684,697.264 404.684,694.264 397.5,691.5C 388.164,687.17 379.498,681.836 371.5,675.5 Z"/></g>
<g><path style="opacity:1" fill="#327ce1" d="M 432.5,689.5 C 433.833,690.167 433.833,690.167 432.5,689.5 Z"/></g>
<g><path style="opacity:1" fill="#3275d4" d="M 393.5,690.5 C 394.833,691.167 394.833,691.167 393.5,690.5 Z"/></g>
<g><path style="opacity:1" fill="#327ce1" d="M 438.5,690.5 C 439.833,691.167 439.833,691.167 438.5,690.5 Z"/></g>
<g><path style="opacity:1" fill="#3275da" d="M 397.5,691.5 C 396.833,692.167 396.833,692.167 397.5,691.5 Z"/></g>
<g><path style="opacity:1" fill="#327cda" d="M 620.5,694.5 C 621.833,695.167 621.833,695.167 620.5,694.5 Z"/></g>
<g><path style="opacity:1" fill="#327ce1" d="M 453.5,696.5 C 453.897,695.475 454.563,695.308 455.5,696C 454.906,696.464 454.239,696.631 453.5,696.5 Z"/></g>
<g><path style="opacity:1" fill="#215bb1" d="M 646.5,680.5 C 644.343,682.412 642.009,684.079 639.5,685.5C 632.976,688.263 626.643,691.263 620.5,694.5C 613.585,695.969 607.085,698.302 601,701.5C 599.951,700.483 598.784,700.316 597.5,701C 603.154,702.94 608.82,704.774 614.5,706.5C 617.969,712.226 616.469,715.893 610,717.5C 606.238,716.532 602.738,715.199 599.5,713.5C 602.865,713.954 606.198,714.62 609.5,715.5C 610.894,715.379 612.228,715.046 613.5,714.5C 616.028,711.34 615.361,708.84 611.5,707C 605.003,705.46 598.67,703.46 592.5,701C 611.387,696.428 629.387,689.594 646.5,680.5 Z"/></g>
<g><path style="opacity:1" fill="#3275da" d="M 418.5,700.5 C 417.833,701.167 417.833,701.167 418.5,700.5 Z"/></g>
<g><path style="opacity:1" fill="#3882e7" d="M 559.5,702.5 C 560.833,703.167 560.833,703.167 559.5,702.5 Z"/></g>
<g><path style="opacity:1" fill="#215bb4" d="M 594.5,671.5 C 585.005,681.828 575.005,691.661 564.5,701C 576.14,705.489 587.806,709.656 599.5,713.5C 587.336,710.722 575.503,707.055 564,702.5C 563.111,703.888 562.611,703.722 562.5,702C 572.407,692.093 582.407,682.093 592.5,672C 593.094,671.536 593.761,671.369 594.5,671.5 Z"/></g>
<g><path style="opacity:1" fill="#327ce1" d="M 611.5,703.5 C 612.833,704.167 612.833,704.167 611.5,703.5 Z"/></g>
<g><path style="opacity:1" fill="#327cda" d="M 614.5,705.5 C 615.833,706.167 615.833,706.167 614.5,705.5 Z"/></g>
<g><path style="opacity:1" fill="#387dda" d="M 433.5,706.5 C 434.833,707.167 434.833,707.167 433.5,706.5 Z"/></g>
<g><path style="opacity:1" fill="#215bb2" d="M 431.5,703.5 C 442.751,706.313 454.085,708.813 465.5,711C 469.304,721.308 475.304,730.141 483.5,737.5C 482.391,737.443 481.391,737.11 480.5,736.5C 478.5,733.833 476.167,731.5 473.5,729.5C 470.243,723.987 467.243,718.32 464.5,712.5C 455.136,710.527 445.803,708.36 436.5,706C 434.509,705.626 432.842,704.793 431.5,703.5 Z"/></g>
<g><path style="opacity:1" fill="#387dda" d="M 575.5,708.5 C 576.833,709.167 576.833,709.167 575.5,708.5 Z"/></g>
<g><path style="opacity:1" fill="#3278da" d="M 450.5,711.5 C 450.897,710.475 451.563,710.308 452.5,711C 451.906,711.464 451.239,711.631 450.5,711.5 Z"/></g>
<g><path style="opacity:1" fill="#327ce1" d="M 555.5,717.5 C 556.833,718.167 556.833,718.167 555.5,717.5 Z"/></g>
<g><path style="opacity:1" fill="#3276ce" d="M 608.5,718.5 C 609.833,719.167 609.833,719.167 608.5,718.5 Z"/></g>
<g><path style="opacity:1" fill="#3275da" d="M 549.5,728.5 C 550.833,729.167 550.833,729.167 549.5,728.5 Z"/></g>
<g><path style="opacity:1" fill="#3275d4" d="M 473.5,729.5 C 472.833,730.167 472.833,730.167 473.5,729.5 Z"/></g>
<g><path style="opacity:1" fill="#3275d4" d="M 546.5,732.5 C 547.833,733.167 547.833,733.167 546.5,732.5 Z"/></g>
<g><path style="opacity:1" fill="#3276ce" d="M 480.5,736.5 C 479.833,737.167 479.833,737.167 480.5,736.5 Z"/></g>
<g><path style="opacity:1" fill="#3276ce" d="M 539.5,738.5 C 540.833,739.167 540.833,739.167 539.5,738.5 Z"/></g>
<g><path style="opacity:1" fill="#326fce" d="M 536.5,740.5 C 537.833,741.167 537.833,741.167 536.5,740.5 Z"/></g>
<g><path style="opacity:1" fill="#3275d4" d="M 532.5,742.5 C 533.833,743.167 533.833,743.167 532.5,742.5 Z"/></g>
<g><path style="opacity:1" fill="#326fce" d="M 497.5,746.5 C 498.833,747.167 498.833,747.167 497.5,746.5 Z"/></g>
<g><path style="opacity:1" fill="#326fce" d="M 505.5,747.5 C 506.833,748.167 506.833,748.167 505.5,747.5 Z"/></g>
<g><path style="opacity:1" fill="#326fce" d="M 516.5,747.5 C 517.833,748.167 517.833,748.167 516.5,747.5 Z"/></g>
</svg>
